<svg width="919" height="814" viewBox="0 0 919 814" fill="none" xmlns="http://www.w3.org/2000/svg">
<path d="M-501.152 929.631C-306.756 895.544 -108.156 906.214 85.5484 940.711C169.612 955.69 253.803 965.565 338.379 948.38C445.765 926.553 524.959 861.944 623.272 820.65C782.71 753.681 909.677 916.14 1058.4 940.839C1117.12 950.586 1165.53 925.707 1221.74 914.857C1293.88 900.93 1356.21 921.423 1421.03 952.74" stroke="url(#paint0_linear_927_492)" stroke-miterlimit="10"/>
<path d="M-501.152 895.287C-306.602 855.327 -115.768 878.975 75.9119 922.244C160.232 941.275 244.782 951.689 329.845 930.631C374.004 919.705 415.728 901.879 456.017 880.95C516.322 849.633 569.682 797.309 630.192 769.327C792.834 694.099 908.882 883.797 1053.56 915.293C1119.4 929.631 1163.2 898.134 1223.91 882.668C1296.09 864.304 1359.01 893.928 1421.03 928.99" stroke="url(#paint1_linear_927_492)" stroke-miterlimit="10"/>
<path d="M-501.152 860.072C-310.446 814.751 -135.528 852.582 49.2575 902.931C135.064 926.297 220.819 940.429 308.188 916.191C354.423 903.367 397.454 882.232 438.768 858.148C503.507 820.419 559.353 760.273 624.528 726.057C795.704 636.21 897.221 856.507 1045.15 891.594C1114.68 908.086 1155.41 870.28 1217.33 850.761C1292.27 827.139 1358.88 866.381 1421 905.239" stroke="url(#paint2_linear_927_492)" stroke-miterlimit="10"/>
<path d="M-501.152 824.472C-319.032 774.251 -164.361 823.856 8.22547 880.642C93.8266 908.804 179.197 929.888 268.412 906.804C404.143 871.691 492.615 764.838 606.69 692.842C791.937 575.961 874.488 836.244 1036.11 869.382C1106.07 883.746 1145.64 839.091 1207.49 817.521C1285.81 790.205 1358.11 839.399 1421.03 881.437" stroke="url(#paint3_linear_927_492)" stroke-miterlimit="10"/>
<path d="M-501.152 789.051C-324.44 731.931 -188.76 796.129 -26.4763 859.764C61.1495 894.108 149.775 921.962 243.142 893.569C381.564 851.479 471.779 736.83 586.212 657.088C780.763 521.535 844.63 811.185 1011.73 845.247C1082.85 859.738 1126.76 810.185 1187.65 785.998C1273.66 751.834 1352.62 809.98 1421.03 857.763" stroke="url(#paint4_linear_927_492)" stroke-miterlimit="10"/>
<path d="M-501.152 754.27C-421.984 724.081 -344.712 717.131 -262.828 741.497C-187.222 763.991 -122.303 809.415 -50.9521 841.552C33.3163 879.513 119.891 912.804 212.105 882.565C358.575 834.525 446.739 704.075 566.273 617.537C759.824 477.392 816.131 776.123 975.031 816.417C1055.48 836.807 1102.1 777.687 1170.5 750.653C1262.95 714.104 1349.32 782.33 1421.03 834.012" stroke="url(#paint5_linear_927_492)" stroke-miterlimit="10"/>
<path d="M-501.152 720.696C-429.904 688.404 -358.911 678.35 -283.664 703.588C-209.545 728.442 -149.342 780.765 -81.0663 816.981C-1.64176 859.122 80.0894 901.417 171.483 874.434C324.719 829.241 420.905 682.736 539.824 587.938C742.601 426.275 776.252 751.372 942.379 788.793C1027.62 808.004 1080.7 739.445 1153.9 712.719C1252.36 676.786 1346.81 755.296 1421 810.236" stroke="url(#paint6_linear_927_492)" stroke-miterlimit="10"/>
<path d="M-501.152 688.816C-336.486 600.328 -237.583 705 -103.466 789.59C-27.2964 837.63 54.7166 893.21 148.058 862.278C299.218 812.186 398.659 661.577 513.246 561.419C587.212 496.784 658.025 481.78 721.38 563.548C776.329 634.441 811.62 736.548 909.395 757.093C994.535 774.97 1054.66 704.795 1127.7 676.197C1235.19 634.082 1341.6 726.16 1421.03 786.512" stroke="url(#paint7_linear_927_492)" stroke-miterlimit="10"/>
<path d="M-501.152 659.166C-341.663 558.854 -242.273 663.013 -116.486 757.554C-49.3887 807.979 26.5759 877.821 117.226 854.147C172.405 839.733 221.331 798.772 263.465 762.607C344.453 693.125 411.678 611.151 488.566 537.745C562.275 467.365 634.933 439.664 698.134 532.512C745.241 601.713 781.378 708.616 876.077 723.723C966.112 738.087 1032 660.782 1110.97 634.056C1224.86 595.48 1339.68 699.152 1421.03 762.709" stroke="url(#paint8_linear_927_492)" stroke-miterlimit="10"/>
<path d="M-501.152 632.286C-438.976 587.529 -370.367 559.444 -294.608 586.708C-227.152 610.998 -174.715 667.425 -122.867 714.439C-64.433 767.429 9.37872 861.508 99.0805 843.016C149.57 832.602 193.985 793.924 231.711 760.991C314.98 688.277 387.971 604.047 462.834 523.023C532.904 447.154 610.56 392.573 675.914 498.169C719.919 569.242 754.083 681.66 853.882 685.61C942.456 689.124 1009.01 618.333 1088.85 592.223C1211.31 552.185 1335.53 669.861 1421.05 738.985" stroke="url(#paint9_linear_927_492)" stroke-miterlimit="10"/>
<path d="M-501.152 607.612C-437.336 557.853 -366.241 524.818 -285.637 553.493C-217.618 577.68 -161.285 632.824 -111.001 682.403C-58.7177 733.983 11.4547 835.295 97.0558 818.008C144.957 808.338 187.091 769.583 222.408 738.138C303.165 666.193 375.285 584.169 448.251 504.581C515.066 431.713 593.542 365.283 659.819 470.391C703.183 539.155 736.117 648.906 834.045 650.265C921.851 651.471 995.073 587.683 1077.06 565.83C1204.67 531.794 1329.38 643.366 1421.03 714.644" stroke="url(#paint10_linear_927_492)" stroke-miterlimit="10"/>
<path d="M-501.152 580.117C-430.749 524.69 -355.63 494.886 -269.568 533.359C-198.396 565.189 -136.066 625.412 -80.9894 678.736C-31.5765 726.596 29.6513 807.364 107.564 782.203C155.106 766.839 196.445 725.801 231.916 692.817C303.011 626.72 369.083 555.135 436.154 485.011C500.073 418.145 577.626 353.1 646.338 446.333C695.213 512.661 726.326 618.744 823.896 623.591C910.804 627.9 994.842 570.524 1078.62 555.135C1205.33 531.846 1323.18 619.257 1421.05 686.61" stroke="url(#paint11_linear_927_492)" stroke-miterlimit="10"/>
<path d="M-501.152 549.568C-425.444 491.756 -348.301 466.338 -259.855 511.993C-192.091 546.952 -129.556 603.251 -73.8132 654.625C-21.8631 702.511 41.9276 785.023 120.429 748.5C161.41 729.443 195.138 693.15 227.328 662.448C295.04 597.813 359.087 529.28 425.21 463.055C493.614 394.547 571.117 341.429 642.084 432.508C690.933 495.219 726.121 593.94 818.745 598.044C903.961 601.84 988.614 560.982 1071.78 547.388C1200.16 526.407 1314.13 591.914 1421.05 655.036" stroke="url(#paint12_linear_927_492)" stroke-miterlimit="10"/>
<path d="M-501.152 516.534C-413.834 453.489 -330.54 439.228 -237.557 497.887C-170.742 540.028 -108.976 597.122 -49.1837 648.599C0.741706 691.586 56.895 759.068 126.76 719.979C164.178 699.05 195.318 661.731 225.124 631.542C288.582 567.241 350.374 501.375 415.676 438.921C483.337 374.209 560.788 327.503 632.806 409.271C686.576 470.315 723.815 567.677 816.207 576.5C897.631 584.272 986.359 552.416 1066.45 540.002C1194.44 520.176 1307.06 565.446 1421 620.718" stroke="url(#paint13_linear_927_492)" stroke-miterlimit="10"/>
<path d="M-501.152 481.625C-406.555 417.94 -319.57 411.117 -224.768 477.752C-153.238 528.024 -88.96 591.556 -20.9404 646.649C25.8326 684.506 77.5777 736.419 136.038 692.919C174.686 664.167 206.236 620.846 238.323 585.554C292.58 525.921 348.195 467.082 407.885 412.861C481.031 346.405 560.353 315.011 634.011 395.112C687.934 453.745 729.248 545.26 817.848 555.186C901.706 564.573 992.382 542.541 1075.45 531.127C1197.59 514.353 1306.31 541.669 1421.03 584.169" stroke="url(#paint14_linear_927_492)" stroke-miterlimit="10"/>
<path d="M-501.152 445.384C-393.305 377.902 -301.63 385.084 -202.625 464.184C-127.506 524.202 -63.4847 594.043 14.8121 650.676C68.5306 689.508 107.256 711.438 156.285 657.319C239.605 565.343 307.086 460.516 404.707 381.211C476.366 323.014 555.201 301.315 626.604 369.053C686.934 426.275 727.531 514.122 814.618 534.744C895.017 553.749 995.918 535 1076.75 523.971C1196.06 507.684 1303.72 517.251 1421.05 546.183" stroke="url(#paint15_linear_927_492)" stroke-miterlimit="10"/>
<path d="M-501.152 408.423C-380.388 337.915 -282.049 360.819 -180.225 451.077C-107.285 515.737 -46.6208 590.606 36.1611 643.724C96.9276 682.736 128.913 689.635 170.483 627.514C236.35 529.1 302.652 428.506 398.607 355.92C476.187 297.21 554.791 284.027 630.602 351.714C693.726 408.09 738.654 498.783 827.92 518.738C907.088 536.436 999.481 528.023 1079.29 517.148C1195.16 501.348 1304.01 494.218 1421.05 507.273" stroke="url(#paint16_linear_927_492)" stroke-miterlimit="10"/>
<path d="M-501.152 371.335C-369.521 298.621 -266.544 334.452 -162.208 433.943C-88.3705 504.349 -27.5015 590.349 63.4048 640.261C130.886 677.324 154.567 658.062 186.758 594.53C237.964 493.5 302.729 391.392 397.582 325.578C477.878 269.843 559.097 268.124 634.523 332.169C700.313 388.058 748.239 476.392 836.378 501.168C1025.42 554.313 1231.14 474.879 1421.05 468.287" stroke="url(#paint17_linear_927_492)" stroke-miterlimit="10"/>
<path d="M-501.152 334.684C-435.67 299.776 -374.109 279.052 -300.836 304.47C-240.223 325.501 -190.579 369.643 -146.113 414.605C-72.7624 488.832 -10.0481 588.708 87.6755 632.824C160.975 665.911 178.326 621.333 203.058 559.135C243.372 457.669 304.241 353.715 399.351 294.313C606.639 164.812 681.45 426.839 846.373 483.651C1038.98 550.004 1232.71 466.287 1421.05 429.789" stroke="url(#paint18_linear_927_492)" stroke-miterlimit="10"/>
<path d="M-501.152 299.057C-432.851 262.892 -369.906 242.733 -295.3 270.202C-232.713 293.235 -182.122 340.3 -136.784 387.981C-65.4838 462.952 8.25108 592.735 114.612 622.59C189.064 643.493 200.802 573.78 219.665 517.661C252.676 419.426 309.572 311.112 404.758 259.148C602.359 151.269 701.876 393.829 851.063 462.388C1046.79 552.338 1236.32 460.105 1421.03 392.444" stroke="url(#paint19_linear_927_492)" stroke-miterlimit="10"/>
<path d="M-501.152 265.072C-432.185 227.523 -370.06 207.132 -294.146 233.73C-231.201 255.788 -179.764 305.007 -135.015 352.97C-62.4083 430.814 15.4272 578.679 128.323 600.737C205.057 615.741 215.821 539.026 232.582 481.419C261.364 382.595 313.186 273.203 412.652 227.241C610.534 135.803 717.254 368.667 863.211 443.972C939.201 483.163 1037.59 503.246 1122.24 489.601C1229.55 472.314 1327.69 408.679 1421.05 357.049" stroke="url(#paint20_linear_927_492)" stroke-miterlimit="10"/>
<path d="M-501.152 233.269C-427.699 190.769 -356.707 166.274 -275.386 203.003C-214.363 230.576 -165.95 281.257 -122.201 330.452C-56.6418 404.166 25.9863 559.469 136.268 571.113C219.281 579.885 229.763 489.166 247.55 427.917C275.05 333.247 324.565 231.755 424.236 195.232C620.632 123.236 734.194 339.121 875.898 423.48C947.505 466.108 1041.1 495.296 1124.86 484.857C1237.06 470.853 1334.17 389.598 1421 324.065" stroke="url(#paint21_linear_927_492)" stroke-miterlimit="10"/>
<path d="M-501.152 204.259C-431.8 160.041 -363.524 129.263 -281.588 162.375C-215.926 188.921 -163.643 245.272 -118.536 297.928C-54.0532 373.207 27.0372 527.766 141.599 530.485C223.279 532.409 238.4 440.381 257.673 378.927C287.48 283.975 334.612 191.871 439.153 165.017C639.341 113.566 750.495 310.958 893.736 405.653C963.857 452.026 1057.38 490.268 1142.8 477.931C1254.52 461.772 1344.27 368.847 1421.03 294.312" stroke="url(#paint22_linear_927_492)" stroke-miterlimit="10"/>
<path d="M-501.152 178.637C-437.49 132.443 -371.367 93.7395 -290.404 120.876C-227.306 142.01 -177.611 193.769 -135.144 242.861C-65.5863 323.244 4.38111 466.235 124.12 475.366C215.155 482.292 238.81 393.752 265.003 323.706C300.73 228.139 350.527 147.217 459.938 132.418C653.899 106.179 765.667 273.075 900.425 378.132C967.983 430.789 1059.45 481.214 1147.85 472.596C1265.1 461.157 1351.39 352.048 1421.03 268.407" stroke="url(#paint23_linear_927_492)" stroke-miterlimit="10"/>
<path d="M-501.152 158.426C-437.797 114.182 -372.469 77.761 -293.121 103.615C-231.329 123.749 -182.147 173.225 -140.193 220.829C-72.6086 297.468 -1.07789 444.589 115.227 448.615C205.159 451.719 235.94 372.003 268.181 301.931C309.521 212.134 365.469 129.93 471.573 115.593C658.743 90.3032 775.662 246.222 908.498 345.944C973.673 394.856 1065.6 444.614 1149.31 442.973C1266.33 440.664 1353.01 329.272 1421.03 247.966" stroke="url(#paint24_linear_927_492)" stroke-miterlimit="10"/>
<path d="M-501.152 144.601C-438.797 101.896 -374.417 66.4753 -296.632 90.0208C-236.532 108.206 -188.068 154.527 -146.779 199.874C-80.2717 272.947 -9.04858 418.529 103.489 419.222C191.73 419.76 229.302 349.483 267.822 281.027C314.877 197.412 376.643 117.183 478.98 103.127C659.383 78.3763 781.249 218.213 914.162 311.292C978.696 356.485 1069.63 406.91 1149.49 414.041C1265.92 424.428 1354.01 311.933 1421 233.551" stroke="url(#paint25_linear_927_492)" stroke-miterlimit="10"/>
<path d="M-501.152 136.035C-441.334 95.1258 -377.39 59.7562 -302.681 78.7362C-238.993 94.8949 -188.401 143.089 -145.036 189.744C-79.1184 260.662 -13.0211 392.394 97.1071 387.495C180.427 383.802 222.895 320.501 266.413 258.2C319.849 181.664 384.358 109.899 482.21 95.9978C659.896 70.7338 784.376 191.616 922.619 277.847C986.487 317.705 1067.53 364.976 1141.11 384.033C1260.38 414.914 1351.21 303.06 1421.03 224.062" stroke="url(#paint26_linear_927_492)" stroke-miterlimit="10"/>
<path d="M-501.152 131.624C-442.974 91.3297 -380.388 55.1906 -306.91 70.1438C-245.733 82.6091 -196.013 125.494 -153.391 168.558C-86.5509 236.065 -24.3235 357.307 82.3703 352.562C163.307 348.971 211.977 295.673 261.492 238.245C320.823 169.456 389.304 104.103 483.388 90.4063C653.565 65.6297 783.966 162.274 923.824 239.169C993.227 277.334 1066.22 323.989 1139.08 354.87C1256.39 404.603 1348.6 296.981 1421 218.47" stroke="url(#paint27_linear_927_492)" stroke-miterlimit="10"/>
<path d="M-501.152 130.264C-378.748 43.4174 -272.874 43.8534 -161.721 146.833C-93.4707 210.057 -35.4722 318.577 67.4798 314.883C145.777 312.062 200.213 268.869 255.392 218.162C320.413 158.426 392.046 100.64 482.389 87.1998C644.544 63.0643 781.839 132.957 922.952 199.259C1000.63 235.757 1063.48 281.54 1135.83 325.938C1250.08 396.036 1343.35 295.954 1421.05 215.802" stroke="url(#paint28_linear_927_492)" stroke-miterlimit="10"/>
<path d="M-501.152 130.854C-387.231 47.3419 -282.383 31.1319 -169.563 124.083C-99.5191 181.792 -45.57 276.333 53.2045 274.384C217.666 271.152 318.952 109.95 479.698 85.6354C633.677 62.3464 778.328 103.641 919.954 158.349C1006.53 191.795 1061.04 239.168 1131.27 296.955C1241.42 387.597 1335.04 298.93 1421.03 214.879" stroke="url(#paint29_linear_927_492)" stroke-miterlimit="10"/>
<path d="M-501.152 132.289C-396.97 52.8297 -292.942 19.1786 -179.149 97.8944C-108.797 146.55 -57.2056 227.856 33.7008 230.986C197.163 236.654 318.799 108.513 475.674 84.0185C618.813 61.6785 771.792 74.0668 909.882 115.515C1008.19 145.037 1058.4 198.719 1127.7 270.382C1153.59 297.159 1182.7 325.039 1221.58 329.246C1298.93 337.582 1371.28 260.866 1421.03 214.801" stroke="url(#paint30_linear_927_492)" stroke-miterlimit="10"/>
<path d="M-501.152 133.47C-404.223 56.5753 -300.682 7.71457 -184.351 72.0928C-112.385 111.925 -62.3314 179.535 23.5003 184.537C183.195 193.847 317.722 108.206 471.343 84.3272C609.15 62.9106 765.308 45.0591 902.936 74.6064C1008.81 97.3311 1056.43 160.709 1120.6 241.708C1145.18 272.743 1173.02 308.446 1213.64 318.192C1292.11 337.018 1369.54 259.636 1421 214.52" stroke="url(#paint31_linear_927_492)" stroke-miterlimit="10"/>
<path d="M-501.152 133.265C-406.555 55.293 -301.425 -5.05837 -179.636 46.9572C-113.231 75.3247 -63.8179 127.315 10.0708 134.547C168.868 150.116 313.263 107.873 468.319 85.0968C550.024 73.0932 630.525 61.1922 711.538 44.854C774.509 32.1579 835.711 25.5662 899.733 34.7484C1010.35 50.5993 1057.07 129.7 1114.43 215.88C1137.39 250.377 1164.99 293.21 1206.72 306.932C1286.68 333.248 1366.44 258.354 1421.03 212.879" stroke="url(#paint32_linear_927_492)" stroke-miterlimit="10"/>
<path d="M-501.152 130.596C-410.041 53.0861 -304.859 -18.7302 -180.328 14.4848C-114.307 32.1055 -61.0243 73.0921 7.58469 81.7613C164.101 101.511 309.111 105.999 465.499 84.198C548.307 72.6561 625.937 55.651 704.926 28.2582C765.744 7.17493 824.101 -10.1123 889.301 -5.49552C1005.4 2.71207 1052.56 96.1503 1104.97 186.895C1127.29 225.548 1154.25 275.281 1197.52 294.081C1279.02 329.502 1363 255.07 1421.08 208.979" stroke="url(#paint33_linear_927_492)" stroke-miterlimit="10"/>
<path d="M-501.152 124.365C-411.322 46.1361 -306.551 -33.7596 -180.533 -21.6534C-112.872 -15.1643 -50.9521 16.8453 16.2217 26.7457C169.765 49.3935 304.831 101.076 462.552 81.8135C546 71.6053 620.991 49.8039 696.187 12.5107C752.827 -15.5746 806.802 -43.9934 871.694 -44.8142C997.841 -46.3531 1045.49 63.9107 1096.28 161.171C1118.22 203.183 1144.59 257.84 1189.29 280.36C1272.23 322.167 1359.67 248.53 1421.03 201.67" stroke="url(#paint34_linear_927_492)" stroke-miterlimit="10"/>
<path d="M-501.152 113.464C-409.477 32.6967 -304.424 -52.4057 -177.175 -60.8185C-108.566 -65.3583 -36.3435 -44.9419 30.4203 -31.0916C180.581 0.0458872 305.6 94.7665 465.064 77.5306C547.051 68.6818 619.453 41.9815 688.19 -3.05761C743.652 -39.4018 794.474 -78.3622 863.339 -82.389C992.228 -89.9041 1039.44 38.1598 1086.47 135.343C1108.81 181.485 1134.47 237.296 1180.55 264.612C1263.31 313.653 1358.72 236.168 1421.03 190" stroke="url(#paint35_linear_927_492)" stroke-miterlimit="10"/>
<path d="M-501.152 96.7405C-344.277 -41.1468 -178.944 -147.461 34.6234 -95.8042C186.655 -59.024 303.754 84.0188 468.703 70.5276C552.279 63.6794 622.682 30.1053 686.268 -23.0645C736.065 -64.6923 780.429 -110.347 848.372 -117.708C977.953 -131.738 1025.44 -0.570575 1069.86 96.4841C1094.1 149.449 1120.35 215.699 1172.96 247.247C1257.8 298.108 1356.31 219.957 1421 172.866" stroke="url(#paint36_linear_927_492)" stroke-miterlimit="10"/>
<path d="M-501.152 74.0149C-350.197 -55.0493 -156.006 -197.81 55.1779 -138.613C203.416 -97.0619 315.416 61.1649 478.34 52.8034C559.814 48.6227 629.038 9.55977 686.55 -45.7901C732.17 -89.675 772.946 -139.177 840.043 -146.615C964.343 -160.44 1014.94 -30.9652 1058.74 61.088C1084.95 116.156 1112.43 183.56 1166.35 217.442C1252.7 271.689 1352.42 197.616 1421 149.807" stroke="url(#paint37_linear_927_492)" stroke-miterlimit="10"/>
<path d="M-501.152 50.2659C-349.659 -73.3095 -150.777 -209.761 57.0745 -158.514C209.849 -120.862 330.87 36.1592 496.28 25.4123C571.245 20.5391 634.062 -15.9077 686.704 -67.3077C728.71 -108.32 765.539 -155.052 826.869 -165.08C949.197 -185.086 1009.63 -52.3545 1057.1 35.6718C1084.36 86.1998 1113.94 144.756 1163.43 177.355C1249.98 234.372 1347.37 171.251 1421.03 123.801" stroke="url(#paint38_linear_927_492)" stroke-miterlimit="10"/>
<path d="M-501.152 26.5153C-346.788 -92.6998 -138.219 -224.534 68.095 -172.006C218.102 -133.815 346.504 9.51027 508.377 0.712768C577.396 -3.03194 637.829 -39.8378 686.089 -86.6723C724.763 -124.196 759.183 -168.902 814.747 -180.675C935.152 -206.17 1004.4 -72.4117 1056.84 11.1005C1088.36 61.295 1121.32 116.542 1175.45 144.935C1261.1 189.846 1346.29 140.267 1421.03 95.8694" stroke="url(#paint39_linear_927_492)" stroke-miterlimit="10"/>
<path d="M-501.152 2.76301C-341.842 -112.733 -128.198 -234.026 77.9109 -182.934C226.483 -146.102 360.343 -13.3957 519.731 -24.2964C583.931 -28.6823 638.803 -60.974 684.679 -104.141C723.251 -140.434 757.901 -184.678 813.004 -194.86C927.489 -216.046 1002.07 -90.4443 1057.94 -12.6262C1090 32.0282 1123.99 77.5802 1172.86 104.64C1257.9 151.679 1343.6 108.615 1421.03 66.3461" stroke="url(#paint40_linear_927_492)" stroke-miterlimit="10"/>
<path d="M-501.152 -20.9865C-340.74 -129.096 -133.76 -233.46 67.3773 -195.526C223.048 -166.158 363.726 -35.9653 527.214 -47.4303C589.211 -51.7906 642.007 -83.4411 687.165 -124.12C724.097 -157.412 757.645 -195.782 808.826 -205.452C914.777 -225.484 993.663 -117.297 1051.89 -46.6095C1090 -0.313651 1131.65 50.4964 1188.67 74.1702C1269.3 107.642 1348.68 71.8874 1421.05 35.6202" stroke="url(#paint41_linear_927_492)" stroke-miterlimit="10"/>
<path d="M-501.152 -44.7381C-336.742 -146.461 -125.481 -239.796 73.7846 -201.657C225.688 -172.571 373.286 -57.0494 532.161 -68.7709C647.543 -77.2862 697.904 -190.474 801.907 -213.404C906.473 -236.436 991.613 -134.508 1055.89 -68.54C1094.54 -28.8615 1134.88 12.8176 1187.06 34.3625C1267.84 67.7058 1346.24 38.1329 1421 4.02012" stroke="url(#paint42_linear_927_492)" stroke-miterlimit="10"/>
<path d="M-501.152 -68.4891C-332.411 -162.902 -125.148 -239.54 72.2468 -207.761C225.381 -183.113 375.695 -78.3894 534.262 -90.2648C643.186 -98.4211 701.415 -200.118 801.958 -219.842C899.989 -239.053 984.334 -158.131 1051.66 -99.011C1093.23 -62.4873 1136.01 -24.1681 1188.37 -3.87999C1268.56 27.2062 1345.27 3.35295 1421.05 -28.0154" stroke="url(#paint43_linear_927_492)" stroke-miterlimit="10"/>
<defs>
<linearGradient id="paint0_linear_927_492" x1="459.938" y1="804.582" x2="459.938" y2="957.455" gradientUnits="userSpaceOnUse">
<stop stop-color="#333333"/>
<stop offset="1" stop-color="#333333" stop-opacity="0"/>
</linearGradient>
<linearGradient id="paint1_linear_927_492" x1="459.938" y1="751.824" x2="459.938" y2="942.264" gradientUnits="userSpaceOnUse">
<stop stop-color="#333333"/>
<stop offset="1" stop-color="#333333" stop-opacity="0"/>
</linearGradient>
<linearGradient id="paint2_linear_927_492" x1="459.925" y1="704.686" x2="459.925" y2="928.813" gradientUnits="userSpaceOnUse">
<stop stop-color="#333333"/>
<stop offset="1" stop-color="#333333" stop-opacity="0"/>
</linearGradient>
<linearGradient id="paint3_linear_927_492" x1="459.938" y1="662.861" x2="459.938" y2="916.656" gradientUnits="userSpaceOnUse">
<stop stop-color="#333333"/>
<stop offset="1" stop-color="#333333" stop-opacity="0"/>
</linearGradient>
<linearGradient id="paint4_linear_927_492" x1="459.938" y1="621.197" x2="459.938" y2="905.293" gradientUnits="userSpaceOnUse">
<stop stop-color="#333333"/>
<stop offset="1" stop-color="#333333" stop-opacity="0"/>
</linearGradient>
<linearGradient id="paint5_linear_927_492" x1="459.938" y1="580.396" x2="459.938" y2="894.324" gradientUnits="userSpaceOnUse">
<stop stop-color="#333333"/>
<stop offset="1" stop-color="#333333" stop-opacity="0"/>
</linearGradient>
<linearGradient id="paint6_linear_927_492" x1="459.925" y1="543.146" x2="459.925" y2="882.923" gradientUnits="userSpaceOnUse">
<stop stop-color="#333333"/>
<stop offset="1" stop-color="#333333" stop-opacity="0"/>
</linearGradient>
<linearGradient id="paint7_linear_927_492" x1="459.938" y1="507.477" x2="459.938" y2="871.208" gradientUnits="userSpaceOnUse">
<stop stop-color="#333333"/>
<stop offset="1" stop-color="#333333" stop-opacity="0"/>
</linearGradient>
<linearGradient id="paint8_linear_927_492" x1="459.938" y1="473.305" x2="459.938" y2="858.902" gradientUnits="userSpaceOnUse">
<stop stop-color="#333333"/>
<stop offset="1" stop-color="#333333" stop-opacity="0"/>
</linearGradient>
<linearGradient id="paint9_linear_927_492" x1="459.951" y1="439.449" x2="459.951" y2="845.387" gradientUnits="userSpaceOnUse">
<stop stop-color="#333333"/>
<stop offset="1" stop-color="#333333" stop-opacity="0"/>
</linearGradient>
<linearGradient id="paint10_linear_927_492" x1="459.938" y1="415.805" x2="459.938" y2="819.968" gradientUnits="userSpaceOnUse">
<stop stop-color="#333333"/>
<stop offset="1" stop-color="#333333" stop-opacity="0"/>
</linearGradient>
<linearGradient id="paint11_linear_927_492" x1="459.951" y1="399.879" x2="459.951" y2="786.95" gradientUnits="userSpaceOnUse">
<stop stop-color="#333333"/>
<stop offset="1" stop-color="#333333" stop-opacity="0"/>
</linearGradient>
<linearGradient id="paint12_linear_927_492" x1="459.951" y1="384.076" x2="459.951" y2="757.563" gradientUnits="userSpaceOnUse">
<stop stop-color="#333333"/>
<stop offset="1" stop-color="#333333" stop-opacity="0"/>
</linearGradient>
<linearGradient id="paint13_linear_927_492" x1="459.925" y1="365.648" x2="459.925" y2="731.719" gradientUnits="userSpaceOnUse">
<stop stop-color="#333333"/>
<stop offset="1" stop-color="#333333" stop-opacity="0"/>
</linearGradient>
<linearGradient id="paint14_linear_927_492" x1="459.938" y1="347.525" x2="459.938" y2="709.442" gradientUnits="userSpaceOnUse">
<stop stop-color="#333333"/>
<stop offset="1" stop-color="#333333" stop-opacity="0"/>
</linearGradient>
<linearGradient id="paint15_linear_927_492" x1="459.951" y1="327.068" x2="459.951" y2="689.652" gradientUnits="userSpaceOnUse">
<stop stop-color="#333333"/>
<stop offset="1" stop-color="#333333" stop-opacity="0"/>
</linearGradient>
<linearGradient id="paint16_linear_927_492" x1="459.951" y1="306.195" x2="459.951" y2="673.625" gradientUnits="userSpaceOnUse">
<stop stop-color="#333333"/>
<stop offset="1" stop-color="#333333" stop-opacity="0"/>
</linearGradient>
<linearGradient id="paint17_linear_927_492" x1="459.951" y1="283.938" x2="459.951" y2="659.006" gradientUnits="userSpaceOnUse">
<stop stop-color="#333333"/>
<stop offset="1" stop-color="#333333" stop-opacity="0"/>
</linearGradient>
<linearGradient id="paint18_linear_927_492" x1="459.951" y1="258.793" x2="459.951" y2="644.063" gradientUnits="userSpaceOnUse">
<stop stop-color="#333333"/>
<stop offset="1" stop-color="#333333" stop-opacity="0"/>
</linearGradient>
<linearGradient id="paint19_linear_927_492" x1="459.938" y1="231.893" x2="459.938" y2="626.385" gradientUnits="userSpaceOnUse">
<stop stop-color="#333333"/>
<stop offset="1" stop-color="#333333" stop-opacity="0"/>
</linearGradient>
<linearGradient id="paint20_linear_927_492" x1="459.951" y1="206.283" x2="459.951" y2="602.643" gradientUnits="userSpaceOnUse">
<stop stop-color="#333333"/>
<stop offset="1" stop-color="#333333" stop-opacity="0"/>
</linearGradient>
<linearGradient id="paint21_linear_927_492" x1="459.925" y1="180.77" x2="459.925" y2="571.705" gradientUnits="userSpaceOnUse">
<stop stop-color="#333333"/>
<stop offset="1" stop-color="#333333" stop-opacity="0"/>
</linearGradient>
<linearGradient id="paint22_linear_927_492" x1="459.938" y1="148.455" x2="459.938" y2="530.515" gradientUnits="userSpaceOnUse">
<stop stop-color="#333333"/>
<stop offset="1" stop-color="#333333" stop-opacity="0"/>
</linearGradient>
<linearGradient id="paint23_linear_927_492" x1="459.938" y1="111.891" x2="459.938" y2="475.749" gradientUnits="userSpaceOnUse">
<stop stop-color="#333333"/>
<stop offset="1" stop-color="#333333" stop-opacity="0"/>
</linearGradient>
<linearGradient id="paint24_linear_927_492" x1="459.938" y1="94.9961" x2="459.938" y2="448.703" gradientUnits="userSpaceOnUse">
<stop stop-color="#333333"/>
<stop offset="1" stop-color="#333333" stop-opacity="0"/>
</linearGradient>
<linearGradient id="paint25_linear_927_492" x1="459.925" y1="82.4922" x2="459.925" y2="419.225" gradientUnits="userSpaceOnUse">
<stop stop-color="#333333"/>
<stop offset="1" stop-color="#333333" stop-opacity="0"/>
</linearGradient>
<linearGradient id="paint26_linear_927_492" x1="459.938" y1="73.4688" x2="459.938" y2="389.292" gradientUnits="userSpaceOnUse">
<stop stop-color="#333333"/>
<stop offset="1" stop-color="#333333" stop-opacity="0"/>
</linearGradient>
<linearGradient id="paint27_linear_927_492" x1="459.925" y1="66.6973" x2="459.925" y2="367.523" gradientUnits="userSpaceOnUse">
<stop stop-color="#333333"/>
<stop offset="1" stop-color="#333333" stop-opacity="0"/>
</linearGradient>
<linearGradient id="paint28_linear_927_492" x1="459.951" y1="67.2207" x2="459.951" y2="349.632" gradientUnits="userSpaceOnUse">
<stop stop-color="#333333"/>
<stop offset="1" stop-color="#333333" stop-opacity="0"/>
</linearGradient>
<linearGradient id="paint29_linear_927_492" x1="459.938" y1="61.0156" x2="459.938" y2="335.086" gradientUnits="userSpaceOnUse">
<stop stop-color="#333333"/>
<stop offset="1" stop-color="#333333" stop-opacity="0"/>
</linearGradient>
<linearGradient id="paint30_linear_927_492" x1="459.938" y1="53.1094" x2="459.938" y2="329.873" gradientUnits="userSpaceOnUse">
<stop stop-color="#333333"/>
<stop offset="1" stop-color="#333333" stop-opacity="0"/>
</linearGradient>
<linearGradient id="paint31_linear_927_492" x1="459.925" y1="42.2812" x2="459.925" y2="321.089" gradientUnits="userSpaceOnUse">
<stop stop-color="#333333"/>
<stop offset="1" stop-color="#333333" stop-opacity="0"/>
</linearGradient>
<linearGradient id="paint32_linear_927_492" x1="459.938" y1="27.5078" x2="459.938" y2="312.395" gradientUnits="userSpaceOnUse">
<stop stop-color="#333333"/>
<stop offset="1" stop-color="#333333" stop-opacity="0"/>
</linearGradient>
<linearGradient id="paint33_linear_927_492" x1="459.963" y1="-6.24805" x2="459.963" y2="303.338" gradientUnits="userSpaceOnUse">
<stop stop-color="#333333"/>
<stop offset="1" stop-color="#333333" stop-opacity="0"/>
</linearGradient>
<linearGradient id="paint34_linear_927_492" x1="459.938" y1="-44.8301" x2="459.938" y2="292.744" gradientUnits="userSpaceOnUse">
<stop stop-color="#333333"/>
<stop offset="1" stop-color="#333333" stop-opacity="0"/>
</linearGradient>
<linearGradient id="paint35_linear_927_492" x1="459.938" y1="-82.7051" x2="459.938" y2="280.296" gradientUnits="userSpaceOnUse">
<stop stop-color="#333333"/>
<stop offset="1" stop-color="#333333" stop-opacity="0"/>
</linearGradient>
<linearGradient id="paint36_linear_927_492" x1="459.925" y1="-118.746" x2="459.925" y2="263.815" gradientUnits="userSpaceOnUse">
<stop stop-color="#333333"/>
<stop offset="1" stop-color="#333333" stop-opacity="0"/>
</linearGradient>
<linearGradient id="paint37_linear_927_492" x1="459.925" y1="-152.4" x2="459.925" y2="236.483" gradientUnits="userSpaceOnUse">
<stop stop-color="#333333"/>
<stop offset="1" stop-color="#333333" stop-opacity="0"/>
</linearGradient>
<linearGradient id="paint38_linear_927_492" x1="459.938" y1="-169.584" x2="459.938" y2="199.976" gradientUnits="userSpaceOnUse">
<stop stop-color="#333333"/>
<stop offset="1" stop-color="#333333" stop-opacity="0"/>
</linearGradient>
<linearGradient id="paint39_linear_927_492" x1="459.938" y1="-183.877" x2="459.938" y2="162.625" gradientUnits="userSpaceOnUse">
<stop stop-color="#333333"/>
<stop offset="1" stop-color="#333333" stop-opacity="0"/>
</linearGradient>
<linearGradient id="paint40_linear_927_492" x1="459.938" y1="-197.232" x2="459.938" y2="125.118" gradientUnits="userSpaceOnUse">
<stop stop-color="#333333"/>
<stop offset="1" stop-color="#333333" stop-opacity="0"/>
</linearGradient>
<linearGradient id="paint41_linear_927_492" x1="459.951" y1="-207.885" x2="459.951" y2="87.5128" gradientUnits="userSpaceOnUse">
<stop stop-color="#333333"/>
<stop offset="1" stop-color="#333333" stop-opacity="0"/>
</linearGradient>
<linearGradient id="paint42_linear_927_492" x1="459.925" y1="-216.727" x2="459.925" y2="48.9722" gradientUnits="userSpaceOnUse">
<stop stop-color="#333333"/>
<stop offset="1" stop-color="#333333" stop-opacity="0"/>
</linearGradient>
<linearGradient id="paint43_linear_927_492" x1="459.951" y1="-222.725" x2="459.951" y2="10.6509" gradientUnits="userSpaceOnUse">
<stop stop-color="#333333"/>
<stop offset="1" stop-color="#333333" stop-opacity="0"/>
</linearGradient>
</defs>
</svg>
