<svg width="164" height="247" viewBox="0 0 164 247" fill="none" xmlns="http://www.w3.org/2000/svg">
<path d="M15.388 241H12.148V240.748L13.084 240.604L12.028 237.844H9.328L8.32 240.4L9.388 240.712V241H6.88V240.712L7.792 240.4L10.744 232.984H11.332L14.464 240.604L15.388 240.712V241ZM11.848 237.4L10.672 234.484L9.496 237.4H11.848ZM17.0311 239.8C17.0311 239.984 17.1591 240.108 17.4151 240.172C17.6791 240.228 18.2231 240.292 19.0471 240.364C19.8711 240.436 20.4631 240.584 20.8231 240.808C21.1831 241.024 21.3631 241.376 21.3631 241.864C21.3631 242.488 21.0671 243.02 20.4751 243.46C19.8911 243.9 19.1311 244.12 18.1951 244.12C17.2591 244.12 16.5711 243.968 16.1311 243.664C15.6911 243.368 15.4711 242.972 15.4711 242.476C15.4711 242.148 15.5791 241.836 15.7951 241.54C16.0111 241.252 16.3271 241.048 16.7431 240.928C16.2551 240.752 16.0111 240.46 16.0111 240.052C16.0111 239.812 16.1351 239.612 16.3831 239.452C16.6311 239.284 16.9111 239.18 17.2231 239.14C16.7191 238.996 16.3311 238.748 16.0591 238.396C15.7871 238.036 15.6511 237.616 15.6511 237.136C15.6511 236.52 15.8791 236.012 16.3351 235.612C16.7991 235.212 17.4231 235.012 18.2071 235.012C18.4311 235.012 18.6751 235.04 18.9391 235.096C19.1711 235.04 19.3551 234.92 19.4911 234.736C19.6351 234.536 19.7071 234.324 19.7071 234.1C19.7071 233.876 19.6951 233.684 19.6711 233.524C19.7831 233.476 19.8951 233.452 20.0071 233.452C20.1191 233.452 20.2311 233.48 20.3431 233.536C20.5591 233.648 20.6671 233.844 20.6671 234.124C20.6671 234.396 20.5351 234.636 20.2711 234.844C20.0071 235.052 19.6911 235.172 19.3231 235.204C19.7551 235.364 20.0871 235.616 20.3191 235.96C20.5511 236.296 20.6671 236.688 20.6671 237.136C20.6671 237.808 20.4071 238.328 19.8871 238.696C19.3751 239.064 18.7431 239.248 17.9911 239.248C17.7111 239.256 17.4791 239.32 17.2951 239.44C17.1191 239.552 17.0311 239.672 17.0311 239.8ZM16.3951 242.344C16.3951 242.768 16.5671 243.104 16.9111 243.352C17.2631 243.608 17.7151 243.736 18.2671 243.736C18.8271 243.736 19.3271 243.596 19.7671 243.316C20.2071 243.036 20.4311 242.684 20.4391 242.26C20.4391 241.988 20.3511 241.784 20.1751 241.648C20.0231 241.528 19.8111 241.448 19.5391 241.408C19.2671 241.368 18.8871 241.32 18.3991 241.264C17.9191 241.216 17.5071 241.156 17.1631 241.084C16.9471 241.196 16.7631 241.368 16.6111 241.6C16.4671 241.84 16.3951 242.088 16.3951 242.344ZM18.1231 238.996C18.5711 238.996 18.9031 238.824 19.1191 238.48C19.3351 238.136 19.4431 237.688 19.4431 237.136C19.4431 235.896 19.0311 235.276 18.2071 235.276C17.7591 235.276 17.4231 235.444 17.1991 235.78C16.9831 236.108 16.8751 236.56 16.8751 237.136C16.8751 238.376 17.2911 238.996 18.1231 238.996ZM22.4257 240.772V235.54L21.3697 235.492V235.216L23.6017 235.084V240.952C23.6017 242.016 23.3777 242.816 22.9297 243.352C22.4817 243.888 21.8417 244.156 21.0097 244.156C20.5137 244.156 20.1017 244.06 19.7737 243.868C19.4377 243.684 19.2697 243.432 19.2697 243.112C19.2697 242.8 19.3817 242.568 19.6057 242.416C19.7257 242.336 19.8497 242.296 19.9777 242.296C20.0977 242.296 20.2137 242.32 20.3257 242.368C20.2777 242.592 20.2537 242.808 20.2537 243.016C20.2537 243.224 20.3257 243.408 20.4697 243.568C20.6137 243.728 20.8137 243.808 21.0697 243.808C21.3257 243.808 21.5417 243.736 21.7177 243.592C21.9017 243.456 22.0377 243.296 22.1257 243.112C22.3257 242.68 22.4257 241.9 22.4257 240.772ZM23.6497 233.188C23.6497 233.38 23.5817 233.548 23.4457 233.692C23.3097 233.828 23.1377 233.896 22.9297 233.896C22.7297 233.896 22.5617 233.828 22.4257 233.692C22.2897 233.556 22.2217 233.388 22.2217 233.188C22.2217 232.98 22.2897 232.808 22.4257 232.672C22.5617 232.528 22.7297 232.456 22.9297 232.456C23.1297 232.456 23.2977 232.528 23.4337 232.672C23.5777 232.816 23.6497 232.988 23.6497 233.188ZM27.8781 241.132C27.0541 241.132 26.3901 240.852 25.8861 240.292C25.3821 239.732 25.1301 238.992 25.1301 238.072C25.1301 237.152 25.3941 236.412 25.9221 235.852C26.4581 235.292 27.1301 235.012 27.9381 235.012C28.7461 235.012 29.3501 235.196 29.7501 235.564C30.1501 235.924 30.3501 236.428 30.3501 237.076C30.3501 237.268 30.3341 237.46 30.3021 237.652H26.4261V238.072C26.4261 238.968 26.5541 239.648 26.8101 240.112C27.0661 240.568 27.4861 240.796 28.0701 240.796C28.8941 240.796 29.5301 240.436 29.9781 239.716C30.1541 239.772 30.2421 239.856 30.2421 239.968C30.2421 240.168 30.0581 240.4 29.6901 240.664C29.5141 240.792 29.2661 240.904 28.9461 241C28.6261 241.088 28.2701 241.132 27.8781 241.132ZM29.2101 236.824C29.2101 236.456 29.1341 236.14 28.9821 235.876C28.7741 235.524 28.4381 235.348 27.9741 235.348C27.1101 235.348 26.6061 235.972 26.4621 237.22H29.1861C29.2021 237.084 29.2101 236.952 29.2101 236.824ZM33.3425 236.416C33.7025 235.488 34.4265 235.024 35.5145 235.024C36.0585 235.024 36.4985 235.188 36.8345 235.516C37.1705 235.836 37.3385 236.296 37.3385 236.896C37.3385 237.928 37.3065 239.18 37.2425 240.652L38.0705 240.712V241H35.4185V240.712L36.0665 240.664C36.1305 238.856 36.1625 237.82 36.1625 237.556C36.1625 237.292 36.1585 237.092 36.1505 236.956C36.1425 236.812 36.1185 236.64 36.0785 236.44C36.0465 236.232 35.9945 236.068 35.9225 235.948C35.7465 235.652 35.4705 235.504 35.0945 235.504C34.5825 235.504 34.1625 235.716 33.8345 236.14C33.5065 236.564 33.3425 237.024 33.3425 237.52V240.652L34.2425 240.712V241H31.3745V240.712L32.1665 240.652V235.576L31.1465 235.528V235.252L33.2945 235.108L33.2345 236.404L33.3425 236.416ZM41.0597 240.832C41.3797 240.832 41.6557 240.744 41.8877 240.568C42.1277 240.392 42.2477 240.096 42.2477 239.68C42.2477 239.4 42.1197 239.168 41.8637 238.984C41.6157 238.8 41.3037 238.636 40.9277 238.492C40.5517 238.34 40.2957 238.236 40.1597 238.18C40.0317 238.116 39.8597 238.016 39.6437 237.88C39.2517 237.616 39.0557 237.236 39.0557 236.74C39.0557 236.244 39.2517 235.832 39.6437 235.504C40.0357 235.176 40.6077 235.012 41.3597 235.012C41.8397 235.012 42.2477 235.12 42.5837 235.336C42.9277 235.544 43.0997 235.796 43.0997 236.092C43.0997 236.388 42.9877 236.592 42.7637 236.704C42.6437 236.76 42.5237 236.788 42.4037 236.788C42.2917 236.788 42.1797 236.764 42.0677 236.716C42.0997 236.572 42.1157 236.416 42.1157 236.248C42.1157 236.08 42.0757 235.912 41.9957 235.744C41.8597 235.456 41.5997 235.312 41.2157 235.312C40.8317 235.312 40.5397 235.416 40.3397 235.624C40.1397 235.832 40.0397 236.104 40.0397 236.44C40.0397 236.784 40.1837 237.04 40.4717 237.208C40.6877 237.344 40.9557 237.468 41.2757 237.58C41.5957 237.692 41.8117 237.772 41.9237 237.82C42.0437 237.86 42.1997 237.932 42.3917 238.036C42.5837 238.14 42.7277 238.248 42.8237 238.36C43.0717 238.632 43.1957 239 43.1957 239.464C43.1957 239.928 42.9877 240.324 42.5717 240.652C42.1557 240.972 41.6477 241.132 41.0477 241.132C40.4477 241.132 39.9197 241.04 39.4637 240.856C39.0157 240.672 38.7917 240.404 38.7917 240.052C38.7917 239.724 39.0357 239.508 39.5237 239.404C39.6677 240.356 40.1797 240.832 41.0597 240.832ZM46.27 233.188C46.27 233.38 46.202 233.548 46.066 233.692C45.93 233.828 45.758 233.896 45.55 233.896C45.35 233.896 45.182 233.828 45.046 233.692C44.91 233.556 44.842 233.388 44.842 233.188C44.842 232.98 44.91 232.808 45.046 232.672C45.182 232.528 45.35 232.456 45.55 232.456C45.75 232.456 45.918 232.528 46.054 232.672C46.198 232.816 46.27 232.988 46.27 233.188ZM44.23 241V240.712L45.022 240.652V235.552L43.966 235.516V235.24L46.198 235.084V240.652L46.99 240.712V241H44.23ZM53.8053 238.072C53.8053 238.96 53.5373 239.692 53.0013 240.268C52.4653 240.844 51.7333 241.132 50.8053 241.132C49.8853 241.132 49.1573 240.844 48.6213 240.268C48.0853 239.692 47.8173 238.96 47.8173 238.072C47.8173 237.184 48.0853 236.452 48.6213 235.876C49.1573 235.3 49.8853 235.012 50.8053 235.012C51.7333 235.012 52.4653 235.3 53.0013 235.876C53.5373 236.452 53.8053 237.184 53.8053 238.072ZM49.1253 238.072C49.1253 239.92 49.6853 240.844 50.8053 240.844C51.9333 240.844 52.4973 239.92 52.4973 238.072C52.4973 237.176 52.3693 236.492 52.1133 236.02C51.8573 235.548 51.4253 235.312 50.8173 235.312C50.2093 235.312 49.7733 235.548 49.5093 236.02C49.2533 236.492 49.1253 237.176 49.1253 238.072ZM56.7918 236.416C57.1518 235.488 57.8758 235.024 58.9638 235.024C59.5078 235.024 59.9478 235.188 60.2838 235.516C60.6198 235.836 60.7878 236.296 60.7878 236.896C60.7878 237.928 60.7558 239.18 60.6918 240.652L61.5198 240.712V241H58.8678V240.712L59.5158 240.664C59.5798 238.856 59.6118 237.82 59.6118 237.556C59.6118 237.292 59.6078 237.092 59.5998 236.956C59.5918 236.812 59.5678 236.64 59.5278 236.44C59.4958 236.232 59.4438 236.068 59.3718 235.948C59.1958 235.652 58.9198 235.504 58.5438 235.504C58.0318 235.504 57.6118 235.716 57.2838 236.14C56.9558 236.564 56.7918 237.024 56.7918 237.52V240.652L57.6918 240.712V241H54.8238V240.712L55.6158 240.652V235.576L54.5958 235.528V235.252L56.7438 235.108L56.6838 236.404L56.7918 236.416ZM71.6718 234.988C71.6718 235.436 71.5758 235.82 71.3838 236.14C71.1918 236.46 70.9318 236.704 70.6038 236.872C69.9878 237.176 69.2518 237.328 68.3958 237.328C68.1878 237.328 67.9078 237.312 67.5558 237.28V240.652L68.4798 240.712V241H65.4198V240.712L66.3198 240.652V233.38L65.2758 233.248V232.96H67.5198L68.9478 232.924C70.7638 232.924 71.6718 233.612 71.6718 234.988ZM68.0838 236.956C68.8118 236.956 69.3718 236.78 69.7638 236.428C70.1558 236.076 70.3518 235.604 70.3518 235.012C70.3518 234.412 70.2118 233.976 69.9318 233.704C69.6518 233.424 69.2038 233.284 68.5878 233.284C68.3158 233.284 67.9718 233.3 67.5558 233.332V236.932C67.6758 236.948 67.8518 236.956 68.0838 236.956ZM73.5193 239.704C73.5193 240.224 73.7313 240.532 74.1553 240.628C74.2513 240.652 74.3433 240.664 74.4313 240.664C74.7353 240.664 75.0513 240.536 75.3793 240.28C75.7073 240.016 75.8793 239.664 75.8953 239.224V238.192C74.3113 238.208 73.5193 238.712 73.5193 239.704ZM73.9993 241.144C73.5433 241.144 73.1513 241.02 72.8233 240.772C72.5033 240.516 72.3433 240.16 72.3433 239.704C72.3513 239.088 72.6593 238.628 73.2673 238.324C73.8833 238.02 74.7593 237.868 75.8953 237.868V236.836C75.8953 235.82 75.5273 235.312 74.7913 235.312C74.4153 235.312 74.1113 235.468 73.8793 235.78C73.7193 235.996 73.6393 236.264 73.6393 236.584C73.6393 236.72 73.6553 236.864 73.6873 237.016C73.5753 237.096 73.4593 237.136 73.3393 237.136C73.2273 237.136 73.1153 237.112 73.0033 237.064C72.7473 236.968 72.6193 236.784 72.6193 236.512C72.6193 236.144 72.7513 235.84 73.0153 235.6C73.4473 235.208 74.0433 235.012 74.8033 235.012C75.5633 235.012 76.1153 235.176 76.4593 235.504C76.8033 235.824 76.9753 236.332 76.9753 237.028V240.664L77.9833 240.712L77.9953 240.988L75.9913 241.132L75.8833 240.064C75.5153 240.784 74.8873 241.144 73.9993 241.144ZM82.1796 239.752C82.1796 239.776 82.1756 239.804 82.1676 239.836C82.0396 240.228 81.8236 240.544 81.5196 240.784C81.2236 241.016 80.8756 241.132 80.4756 241.132C80.0756 241.132 79.7396 241.02 79.4676 240.796C79.2036 240.564 79.0716 240.116 79.0716 239.452C79.0716 239.268 79.0916 237.936 79.1316 235.456H78.3036V235.144H79.1436L79.1556 233.38H80.3316L80.2956 235.144H82.0116V235.456H80.2956C80.2556 238.04 80.2356 239.552 80.2356 239.992C80.2356 240.528 80.4116 240.796 80.7636 240.796C80.9796 240.796 81.2036 240.672 81.4356 240.424C81.6756 240.176 81.8436 239.896 81.9396 239.584C82.0996 239.584 82.1796 239.64 82.1796 239.752ZM85.3153 241.144C84.0353 241.144 83.3953 240.528 83.3953 239.296C83.3953 238.392 83.4233 237.136 83.4793 235.528L82.5193 235.48V235.204L84.6553 235.072C84.5993 237.184 84.5713 238.62 84.5713 239.38C84.5713 239.836 84.6553 240.176 84.8233 240.4C84.9913 240.624 85.2713 240.736 85.6633 240.736C86.0633 240.736 86.4393 240.516 86.7913 240.076C87.1433 239.628 87.3193 239.236 87.3193 238.9V235.528L86.3233 235.48V235.204L88.4953 235.072V240.628L89.5153 240.676L89.5273 240.952L87.3673 241.096L87.4513 239.8H87.3073C86.8913 240.696 86.2273 241.144 85.3153 241.144ZM92.1121 236.416C92.4721 235.488 93.1961 235.024 94.2841 235.024C94.8281 235.024 95.2681 235.188 95.6041 235.516C95.9401 235.836 96.1081 236.296 96.1081 236.896C96.1081 237.928 96.0761 239.18 96.0121 240.652L96.8401 240.712V241H94.1881V240.712L94.8361 240.664C94.9001 238.856 94.9321 237.82 94.9321 237.556C94.9321 237.292 94.9281 237.092 94.9201 236.956C94.9121 236.812 94.8881 236.64 94.8481 236.44C94.8161 236.232 94.7641 236.068 94.6921 235.948C94.5161 235.652 94.2401 235.504 93.8641 235.504C93.3521 235.504 92.9321 235.716 92.6041 236.14C92.2761 236.564 92.1121 237.024 92.1121 237.52V240.652L93.0121 240.712V241H90.1441V240.712L90.9361 240.652V235.576L89.9161 235.528V235.252L92.0641 235.108L92.0041 236.404L92.1121 236.416ZM102.217 239.164V235.864C101.833 235.568 101.357 235.42 100.789 235.42C100.077 235.42 99.5892 235.712 99.3252 236.296C99.1092 236.792 99.0012 237.468 99.0012 238.324C99.0012 239.98 99.4492 240.808 100.345 240.808C100.849 240.808 101.285 240.616 101.653 240.232C102.029 239.848 102.217 239.492 102.217 239.164ZM100.117 241.18C99.4292 241.18 98.8492 240.936 98.3772 240.448C97.9052 239.952 97.6692 239.216 97.6692 238.24C97.6692 237.256 97.9532 236.48 98.5212 235.912C99.0972 235.344 99.8612 235.06 100.813 235.06C101.309 235.06 101.777 235.176 102.217 235.408V232.384L101.161 232.336L101.149 232.06L103.369 231.808V240.724L104.389 240.772L104.401 241.048L102.277 241.192L102.301 240.04H102.229C102.037 240.4 101.745 240.68 101.353 240.88C100.961 241.08 100.549 241.18 100.117 241.18ZM107.777 241.132C106.953 241.132 106.289 240.852 105.785 240.292C105.281 239.732 105.029 238.992 105.029 238.072C105.029 237.152 105.293 236.412 105.821 235.852C106.357 235.292 107.029 235.012 107.837 235.012C108.645 235.012 109.249 235.196 109.649 235.564C110.049 235.924 110.249 236.428 110.249 237.076C110.249 237.268 110.233 237.46 110.201 237.652H106.325V238.072C106.325 238.968 106.453 239.648 106.709 240.112C106.965 240.568 107.385 240.796 107.969 240.796C108.793 240.796 109.429 240.436 109.877 239.716C110.053 239.772 110.141 239.856 110.141 239.968C110.141 240.168 109.957 240.4 109.589 240.664C109.413 240.792 109.165 240.904 108.845 241C108.525 241.088 108.169 241.132 107.777 241.132ZM109.109 236.824C109.109 236.456 109.033 236.14 108.881 235.876C108.673 235.524 108.337 235.348 107.873 235.348C107.009 235.348 106.505 235.972 106.361 237.22H109.085C109.101 237.084 109.109 236.952 109.109 236.824ZM113.505 240.832C113.825 240.832 114.101 240.744 114.333 240.568C114.573 240.392 114.693 240.096 114.693 239.68C114.693 239.4 114.565 239.168 114.309 238.984C114.061 238.8 113.749 238.636 113.373 238.492C112.997 238.34 112.741 238.236 112.605 238.18C112.477 238.116 112.305 238.016 112.089 237.88C111.697 237.616 111.501 237.236 111.501 236.74C111.501 236.244 111.697 235.832 112.089 235.504C112.481 235.176 113.053 235.012 113.805 235.012C114.285 235.012 114.693 235.12 115.029 235.336C115.373 235.544 115.545 235.796 115.545 236.092C115.545 236.388 115.433 236.592 115.209 236.704C115.089 236.76 114.969 236.788 114.849 236.788C114.737 236.788 114.625 236.764 114.513 236.716C114.545 236.572 114.561 236.416 114.561 236.248C114.561 236.08 114.521 235.912 114.441 235.744C114.305 235.456 114.045 235.312 113.661 235.312C113.277 235.312 112.985 235.416 112.785 235.624C112.585 235.832 112.485 236.104 112.485 236.44C112.485 236.784 112.629 237.04 112.917 237.208C113.133 237.344 113.401 237.468 113.721 237.58C114.041 237.692 114.257 237.772 114.369 237.82C114.489 237.86 114.645 237.932 114.837 238.036C115.029 238.14 115.173 238.248 115.269 238.36C115.517 238.632 115.641 239 115.641 239.464C115.641 239.928 115.433 240.324 115.017 240.652C114.601 240.972 114.093 241.132 113.493 241.132C112.893 241.132 112.365 241.04 111.909 240.856C111.461 240.672 111.237 240.404 111.237 240.052C111.237 239.724 111.481 239.508 111.969 239.404C112.113 240.356 112.625 240.832 113.505 240.832ZM120.539 235.06C121.819 235.06 122.459 235.676 122.459 236.908C122.459 237.796 122.431 239.044 122.375 240.652L123.227 240.712V241H120.551V240.712L121.199 240.664C121.255 238.552 121.283 237.272 121.283 236.824C121.283 236.368 121.199 236.028 121.031 235.804C120.863 235.58 120.571 235.468 120.155 235.468C119.747 235.468 119.363 235.664 119.003 236.056C118.643 236.448 118.463 236.808 118.463 237.136V240.652L119.255 240.712V241H116.495V240.712L117.287 240.652V232.384L116.231 232.336L116.219 232.06L118.463 231.808C118.415 234.552 118.387 236.016 118.379 236.2H118.475C118.691 235.832 118.979 235.552 119.339 235.36C119.707 235.16 120.107 235.06 120.539 235.06ZM131.933 235.06C133.213 235.06 133.853 235.676 133.853 236.908C133.853 237.796 133.825 239.044 133.769 240.652L134.621 240.712V241H131.945V240.712L132.593 240.664C132.649 238.552 132.677 237.272 132.677 236.824C132.677 236.368 132.593 236.028 132.425 235.804C132.257 235.58 131.985 235.468 131.609 235.468C131.233 235.468 130.885 235.628 130.565 235.948C130.245 236.26 130.029 236.596 129.917 236.956C129.917 237.82 129.889 239.052 129.833 240.652L130.685 240.712V241H128.009V240.712L128.657 240.664C128.713 238.552 128.741 237.272 128.741 236.824C128.741 236.368 128.657 236.028 128.489 235.804C128.321 235.58 128.029 235.468 127.613 235.468C127.205 235.468 126.821 235.688 126.461 236.128C126.101 236.56 125.921 236.944 125.921 237.28V240.652L126.821 240.712V241H123.965V240.712L124.745 240.664V235.576L123.725 235.528V235.252L125.873 235.108L125.813 236.344H125.933C126.149 235.92 126.437 235.6 126.797 235.384C127.165 235.168 127.565 235.06 127.997 235.06C129.077 235.06 129.701 235.492 129.869 236.356V236.344C130.085 235.92 130.373 235.6 130.733 235.384C131.101 235.168 131.501 235.06 131.933 235.06ZM138.187 241.132C137.363 241.132 136.699 240.852 136.195 240.292C135.691 239.732 135.439 238.992 135.439 238.072C135.439 237.152 135.703 236.412 136.231 235.852C136.767 235.292 137.439 235.012 138.247 235.012C139.055 235.012 139.659 235.196 140.059 235.564C140.459 235.924 140.659 236.428 140.659 237.076C140.659 237.268 140.643 237.46 140.611 237.652H136.735V238.072C136.735 238.968 136.863 239.648 137.119 240.112C137.375 240.568 137.795 240.796 138.379 240.796C139.203 240.796 139.839 240.436 140.287 239.716C140.463 239.772 140.551 239.856 140.551 239.968C140.551 240.168 140.367 240.4 139.999 240.664C139.823 240.792 139.575 240.904 139.255 241C138.935 241.088 138.579 241.132 138.187 241.132ZM139.519 236.824C139.519 236.456 139.443 236.14 139.291 235.876C139.083 235.524 138.747 235.348 138.283 235.348C137.419 235.348 136.915 235.972 136.771 237.22H139.495C139.511 237.084 139.519 236.952 139.519 236.824ZM145.415 235C145.623 235 145.787 235.052 145.907 235.156C146.027 235.252 146.087 235.388 146.087 235.564C146.087 235.868 145.971 236.068 145.739 236.164C145.611 236.06 145.379 236.008 145.043 236.008C144.707 236.008 144.383 236.12 144.071 236.344C143.767 236.56 143.615 236.808 143.615 237.088V240.652L144.695 240.712V241H141.647V240.712L142.439 240.664V235.54L141.491 235.492V235.216L143.615 235.084L143.543 236.56H143.591C143.727 236.128 143.975 235.76 144.335 235.456C144.703 235.152 145.063 235 145.415 235ZM148.75 233.188C148.75 233.38 148.682 233.548 148.546 233.692C148.41 233.828 148.238 233.896 148.03 233.896C147.83 233.896 147.662 233.828 147.526 233.692C147.39 233.556 147.322 233.388 147.322 233.188C147.322 232.98 147.39 232.808 147.526 232.672C147.662 232.528 147.83 232.456 148.03 232.456C148.23 232.456 148.398 232.528 148.534 232.672C148.678 232.816 148.75 232.988 148.75 233.188ZM146.71 241V240.712L147.502 240.652V235.552L146.446 235.516V235.24L148.678 235.084V240.652L149.47 240.712V241H146.71ZM153.058 241.132C152.234 241.132 151.57 240.852 151.066 240.292C150.562 239.732 150.31 238.992 150.31 238.072C150.31 237.152 150.574 236.412 151.102 235.852C151.638 235.292 152.31 235.012 153.118 235.012C153.926 235.012 154.53 235.196 154.93 235.564C155.33 235.924 155.53 236.428 155.53 237.076C155.53 237.268 155.514 237.46 155.482 237.652H151.606V238.072C151.606 238.968 151.734 239.648 151.99 240.112C152.246 240.568 152.666 240.796 153.25 240.796C154.074 240.796 154.71 240.436 155.158 239.716C155.334 239.772 155.422 239.856 155.422 239.968C155.422 240.168 155.238 240.4 154.87 240.664C154.694 240.792 154.446 240.904 154.126 241C153.806 241.088 153.45 241.132 153.058 241.132ZM154.39 236.824C154.39 236.456 154.314 236.14 154.162 235.876C153.954 235.524 153.618 235.348 153.154 235.348C152.29 235.348 151.786 235.972 151.642 237.22H154.366C154.382 237.084 154.39 236.952 154.39 236.824Z" fill="#C0C0C0"/>
<path d="M2.025 222C1.875 222 1.8 221.925 1.8 221.775L1.89 190.86C1.89 190.74 1.95 190.68 2.07 190.68H10.71C13.47 190.68 15.645 191.52 17.235 193.2C18.855 194.88 19.665 197.16 19.665 200.04C19.665 202.17 19.245 204.015 18.405 205.575C17.565 207.135 16.47 208.335 15.12 209.175C13.77 210.015 12.3 210.435 10.71 210.435H7.29V221.775C7.29 221.925 7.215 222 7.065 222H2.025ZM7.29 204.99H10.71C11.67 204.99 12.495 204.54 13.185 203.64C13.905 202.71 14.265 201.51 14.265 200.04C14.265 198.87 13.95 197.91 13.32 197.16C12.69 196.41 11.82 196.035 10.71 196.035L7.29 196.08V204.99ZM18.5952 221.775L24.1752 190.86C24.2052 190.74 24.2802 190.68 24.4002 190.68H30.9252C31.0452 190.68 31.1202 190.74 31.1502 190.86L36.5052 221.775C36.5352 221.925 36.4752 222 36.3252 222H31.3302C31.2102 222 31.1352 221.925 31.1052 221.775L30.6102 218.49H24.4902L23.9952 221.775C23.9652 221.925 23.8902 222 23.7702 222H18.7752C18.6552 222 18.5952 221.925 18.5952 221.775ZM25.3902 213.675H29.7102L27.8652 201.03L27.5952 199.365L27.4152 201.03L25.3902 213.675ZM39.7343 222C39.4943 222 39.3743 221.895 39.3743 221.685L39.3293 191.04C39.3293 190.8 39.4493 190.68 39.6893 190.68H43.7393L51.3443 208.41L51.1193 191.04C51.1193 190.8 51.2543 190.68 51.5243 190.68H55.9793C56.1593 190.68 56.2493 190.8 56.2493 191.04L56.2943 221.73C56.2943 221.91 56.2193 222 56.0693 222H52.1093L44.3243 205.44L44.6393 221.64C44.6393 221.88 44.5043 222 44.2343 222H39.7343ZM68.5283 222.45C66.9083 222.45 65.4233 222.045 64.0733 221.235C62.7533 220.395 61.6883 219.3 60.8783 217.95C60.0683 216.57 59.6633 215.055 59.6633 213.405L59.7083 199.14C59.7083 197.49 60.0983 195.99 60.8783 194.64C61.6883 193.29 62.7683 192.21 64.1183 191.4C65.4683 190.59 66.9383 190.185 68.5283 190.185C70.1483 190.185 71.6183 190.59 72.9383 191.4C74.2583 192.21 75.3083 193.29 76.0883 194.64C76.8983 195.99 77.3033 197.49 77.3033 199.14L77.3483 213.405C77.3483 215.055 76.9433 216.57 76.1333 217.95C75.3533 219.3 74.2883 220.395 72.9383 221.235C71.6183 222.045 70.1483 222.45 68.5283 222.45ZM68.5283 217.005C69.4283 217.005 70.2083 216.645 70.8683 215.925C71.5583 215.175 71.9033 214.335 71.9033 213.405L71.8583 199.14C71.8583 198.15 71.5433 197.31 70.9133 196.62C70.2833 195.93 69.4883 195.585 68.5283 195.585C67.5983 195.585 66.8033 195.93 66.1433 196.62C65.4833 197.28 65.1533 198.12 65.1533 199.14V213.405C65.1533 214.395 65.4833 215.25 66.1433 215.97C66.8033 216.66 67.5983 217.005 68.5283 217.005ZM80.9497 222C80.8297 222 80.7697 221.925 80.7697 221.775L80.8597 190.86C80.8597 190.74 80.9197 190.68 81.0397 190.68H90.1297C91.7497 190.68 93.2347 191.085 94.5847 191.895C95.9647 192.675 97.0597 193.74 97.8697 195.09C98.6797 196.41 99.0847 197.91 99.0847 199.59C99.0847 200.7 98.9197 201.705 98.5897 202.605C98.2597 203.475 97.8697 204.225 97.4197 204.855C96.9697 205.455 96.5647 205.905 96.2047 206.205C97.8247 208.005 98.6347 210.12 98.6347 212.55L98.6797 221.775C98.6797 221.925 98.6047 222 98.4547 222H93.3697C93.2497 222 93.1897 221.955 93.1897 221.865V212.55C93.1897 211.47 92.7997 210.54 92.0197 209.76C91.2697 208.95 90.3397 208.545 89.2297 208.545H86.2597L86.2147 221.775C86.2147 221.925 86.1547 222 86.0347 222H80.9497ZM86.2597 203.145H90.1297C91.0597 203.145 91.8847 202.8 92.6047 202.11C93.3247 201.42 93.6847 200.58 93.6847 199.59C93.6847 198.63 93.3247 197.805 92.6047 197.115C91.9147 196.425 91.0897 196.08 90.1297 196.08H86.2597V203.145ZM100.949 221.775L106.529 190.86C106.559 190.74 106.634 190.68 106.754 190.68H113.279C113.399 190.68 113.474 190.74 113.504 190.86L118.859 221.775C118.889 221.925 118.829 222 118.679 222H113.684C113.564 222 113.489 221.925 113.459 221.775L112.964 218.49H106.844L106.349 221.775C106.319 221.925 106.244 222 106.124 222H101.129C101.009 222 100.949 221.925 100.949 221.775ZM107.744 213.675H112.064L110.219 201.03L109.949 199.365L109.769 201.03L107.744 213.675ZM121.863 222C121.743 222 121.683 221.925 121.683 221.775L121.773 190.86C121.773 190.74 121.833 190.68 121.953 190.68H127.443C127.563 190.68 127.668 190.74 127.758 190.86L131.853 196.8L135.948 190.86C136.038 190.74 136.143 190.68 136.263 190.68H141.798C141.918 190.68 141.978 190.74 141.978 190.86L142.068 221.775C142.068 221.925 142.008 222 141.888 222H136.803C136.683 222 136.623 221.925 136.623 221.775L136.578 198.825L131.853 205.665L127.173 198.825L127.128 221.775C127.128 221.925 127.068 222 126.948 222H121.863ZM144.323 221.775L149.903 190.86C149.933 190.74 150.008 190.68 150.128 190.68H156.653C156.773 190.68 156.848 190.74 156.878 190.86L162.233 221.775C162.263 221.925 162.203 222 162.053 222H157.058C156.938 222 156.863 221.925 156.833 221.775L156.338 218.49H150.218L149.723 221.775C149.693 221.925 149.618 222 149.498 222H144.503C144.383 222 144.323 221.925 144.323 221.775ZM151.118 213.675H155.438L153.593 201.03L153.323 199.365L153.143 201.03L151.118 213.675Z" fill="white"/>
<path d="M162 65.6407L94 0V175H162V162.5H107.6V31.5248L121.2 44.4802V145.1H135.239V58.7312L148.4 70.8229V145.1H162V65.6407Z" fill="#C0C0C0"/>
<path d="M0 79.6171V175H11.4651V85.1351L24.5116 72.5225V175H36.3721V60.3041L48.6279 48.0856V175H85V5.91216L79.4651 0L73.5349 5.91216V163.176H60.8837V18.9189L0 79.6171Z" fill="white"/>
</svg>
