<svg width="1920" height="63" viewBox="0 0 1920 63" fill="none" xmlns="http://www.w3.org/2000/svg">
<g style="mix-blend-mode:color-dodge">
<path d="M0.84375 256.581C62.8906 211.963 131.357 183.965 206.959 211.145C274.274 235.359 326.603 291.61 378.342 338.478C436.655 391.303 510.313 485.09 599.829 466.655C650.213 456.274 694.536 417.716 732.183 384.886C815.279 312.398 888.119 228.429 962.826 147.657C1032.75 72.0244 1110.24 17.6137 1175.46 122.881C1219.38 193.732 1253.47 305.801 1353.06 309.739C1441.45 313.242 1507.87 242.671 1587.54 216.642C1709.74 176.729 1833.71 294.039 1919.05 362.947" stroke="#666666" stroke-miterlimit="10"/>
<path d="M0.84375 231.984C64.5275 182.38 135.475 149.447 215.911 178.033C283.789 202.145 340.004 257.118 390.184 306.543C442.359 357.962 512.385 458.959 597.808 441.725C645.609 432.086 687.656 393.451 722.899 362.104C803.489 290.383 875.459 208.614 948.273 129.273C1014.95 56.6321 1093.26 -9.59146 1159.4 95.19C1202.68 163.74 1235.54 273.15 1333.27 274.505C1420.89 275.707 1493.96 212.117 1575.78 190.332C1703.12 156.402 1827.57 267.627 1919.03 338.683" stroke="#666666" stroke-miterlimit="10"/>
<path d="M0.84375 204.574C71.1004 149.319 146.063 119.608 231.947 157.962C302.971 189.693 365.171 249.728 420.133 302.886C469.443 350.598 530.544 431.114 608.294 406.031C655.737 390.715 696.991 349.805 732.388 316.924C803.335 251.032 869.27 179.67 936.201 109.764C999.987 43.106 1077.38 -21.7367 1145.95 71.2063C1194.72 137.328 1225.77 243.081 1323.14 247.913C1409.87 252.209 1493.73 195.011 1577.34 179.67C1703.78 156.453 1821.38 243.592 1919.05 310.736" stroke="#666666" stroke-miterlimit="10"/>
<path d="M0.84375 174.122C76.3946 116.49 153.378 91.1507 241.64 136.663C309.262 171.514 371.667 227.638 427.294 278.852C479.137 326.589 542.795 408.845 621.133 372.434C662.029 353.437 695.687 317.257 727.81 286.651C795.381 222.217 859.295 153.897 925.281 87.8779C993.542 19.5833 1070.88 -33.37 1141.7 57.4253C1190.45 119.941 1225.57 218.356 1318 222.447C1403.04 226.231 1487.51 185.5 1570.51 171.948C1698.62 151.033 1812.35 216.336 1919.05 279.261" stroke="#666666" stroke-miterlimit="10"/>
<path d="M0.84375 141.189C87.9805 78.3408 171.102 64.1244 263.891 122.601C330.567 164.61 392.204 221.527 451.873 272.844C501.694 315.697 557.731 382.969 627.451 344.002C664.791 323.138 695.866 285.935 725.61 255.84C788.936 191.739 850.599 126.078 915.766 63.8176C983.287 -0.692762 1060.58 -47.2538 1132.44 34.26C1186.1 95.114 1223.26 192.174 1315.46 200.969C1396.72 208.717 1485.26 176.96 1565.19 164.585C1692.91 144.82 1805.29 189.949 1919 245.05" stroke="#666666" stroke-miterlimit="10"/>
<path d="M0.84375 106.39C95.244 42.9022 182.048 36.1009 276.653 102.529C348.035 152.644 412.179 215.978 480.057 270.9C526.733 308.64 578.371 360.391 636.709 317.027C675.277 288.364 706.761 245.178 738.782 209.995C792.926 150.547 848.425 91.8922 907.991 37.8395C980.985 -28.4095 1060.14 -59.7059 1133.65 20.1459C1187.46 78.5964 1228.69 169.826 1317.1 179.721C1400.79 189.08 1491.27 167.116 1574.16 155.738C1696.06 139.016 1804.55 166.247 1919.03 208.614" stroke="#666666" stroke-miterlimit="10"/>
<path d="M0.84375 70.2617C108.467 2.98991 199.951 10.1493 298.751 89.0038C373.713 148.835 437.601 218.459 515.735 274.915C569.342 313.627 607.987 335.488 656.914 281.538C740.061 189.848 807.402 85.3474 904.82 6.28833C976.33 -51.7275 1055 -73.3589 1126.26 -5.83135C1186.46 51.2129 1226.97 138.786 1313.88 159.344C1394.11 178.29 1494.8 159.6 1575.47 148.605C1694.52 132.369 1801.97 141.906 1919.05 170.748" stroke="#666666" stroke-miterlimit="10"/>
<path d="M0.84375 33.4156C121.357 -36.8733 219.491 -14.0403 321.104 75.9367C393.892 140.396 454.43 215.032 537.04 267.985C597.68 306.875 629.599 313.753 671.083 251.825C736.813 153.717 802.977 53.4361 898.733 -18.9239C976.151 -77.4512 1054.59 -90.5936 1130.25 -23.1172C1193.24 33.0832 1238.07 123.495 1327.15 143.388C1406.16 161.03 1498.36 152.644 1578 141.802C1693.63 126.052 1802.25 118.944 1919.05 131.958" stroke="#666666" stroke-miterlimit="10"/>
<path d="M0.84375 -3.55621C132.201 -76.0441 234.965 -40.3243 339.084 58.8575C412.767 129.044 473.51 214.777 564.227 264.534C631.568 301.481 655.2 282.279 687.323 218.945C738.424 118.229 803.054 16.4387 897.71 -49.1711C977.839 -104.732 1058.89 -106.445 1134.16 -42.5999C1199.81 13.1148 1247.64 101.174 1335.59 125.874C1524.24 178.852 1729.54 99.6656 1919.05 93.0943" stroke="#666666" stroke-miterlimit="10"/>
<path d="M0.84375 -40.0954C66.1899 -74.8946 127.623 -95.5543 200.744 -70.2155C261.231 -49.249 310.771 -5.24492 355.145 39.5774C428.343 113.574 490.927 213.139 588.447 257.118C661.594 290.102 678.909 245.663 703.59 183.658C743.82 82.5076 804.563 -21.1232 899.475 -80.3408C1106.33 -209.438 1180.99 51.7738 1345.57 108.409C1537.77 174.556 1731.1 91.0988 1919.05 54.7142" stroke="#666666" stroke-miterlimit="10"/>
<path d="M0.84375 -75.6089C69.0032 -111.661 131.817 -131.758 206.268 -104.374C268.725 -81.413 319.211 -34.4941 364.455 13.0386C435.607 87.7765 509.188 217.155 615.328 246.917C689.625 267.756 701.339 198.26 720.163 142.315C753.104 44.3861 809.883 -63.5915 904.871 -115.394C1102.06 -222.937 1201.37 18.8683 1350.25 87.214C1545.57 176.884 1734.7 84.9384 1919.03 17.4876" stroke="#666666" stroke-miterlimit="10"/>
<path d="M0.84375 -109.489C69.6682 -146.922 131.664 -167.25 207.419 -140.735C270.234 -118.745 321.564 -69.6786 366.219 -21.8647C438.676 55.737 516.349 203.142 629.011 225.131C705.585 240.089 716.326 163.612 733.053 106.184C761.775 7.66742 813.489 -101.384 912.749 -147.204C1110.22 -238.357 1216.72 -6.21652 1362.37 68.8538C1438.2 107.923 1536.39 127.944 1620.87 114.341C1727.95 97.1075 1825.88 33.671 1919.05 -17.7992" stroke="#666666" stroke-miterlimit="10"/>
<path d="M0.84375 -141.193C74.144 -183.561 144.989 -207.979 226.141 -171.365C287.037 -143.878 335.349 -93.3539 379.007 -44.3127C444.43 29.1723 526.887 183.992 636.939 195.6C719.779 204.345 730.24 113.908 747.989 52.8491C775.432 -41.5258 824.845 -142.702 924.309 -179.112C1120.3 -250.884 1233.62 -35.6704 1375.03 48.4257C1446.49 90.9213 1539.89 120.019 1623.47 109.612C1735.44 95.6515 1832.35 14.6492 1919 -50.6794" stroke="#666666" stroke-miterlimit="10"/>
<path d="M0.84375 -170.111C70.0518 -214.192 138.186 -244.875 219.952 -211.865C285.477 -185.402 337.651 -129.227 382.665 -76.7338C447.013 -1.68903 527.935 152.389 642.259 155.1C723.769 157.017 738.859 65.276 758.092 4.01284C787.836 -90.6433 834.87 -182.461 939.194 -209.232C1138.97 -260.523 1249.89 -63.7448 1392.83 30.6557C1462.81 76.8843 1556.13 115.007 1641.38 102.709C1752.86 86.6004 1842.43 -6.03576 1919.03 -80.339" stroke="#666666" stroke-miterlimit="10"/>
<path d="M0.84375 -195.655C64.374 -241.704 130.36 -280.288 211.153 -253.236C274.121 -232.167 323.712 -180.569 366.092 -131.63C435.504 -51.4973 505.326 91.0494 624.816 100.152C715.661 107.056 739.268 18.7916 765.406 -51.0371C801.059 -146.307 850.753 -226.977 959.936 -241.73C1153.49 -267.887 1265.03 -101.51 1399.51 3.22016C1466.92 55.7131 1558.2 105.982 1646.42 97.3905C1763.42 85.9867 1849.54 -22.7834 1919.03 -106.164" stroke="#666666" stroke-miterlimit="10"/>
<path d="M0.84375 -215.804C64.0671 -259.911 129.26 -296.219 208.442 -270.445C270.106 -250.374 319.186 -201.051 361.053 -153.595C428.496 -77.1953 499.879 69.468 615.941 73.4824C705.687 76.5762 736.403 -2.89203 768.578 -72.7463C809.832 -162.263 865.663 -244.211 971.547 -258.504C1158.33 -283.715 1275 -128.282 1407.56 -28.87C1472.6 19.8899 1564.34 69.4936 1647.87 67.8572C1764.65 65.556 1851.15 -45.4898 1919.03 -126.543" stroke="#666666" stroke-miterlimit="10"/>
<path d="M0.84375 -229.586C63.0696 -272.158 127.316 -307.469 204.939 -283.997C264.914 -265.868 313.278 -219.691 354.48 -174.485C420.849 -101.639 491.924 43.4899 604.228 44.1803C692.285 44.7172 729.779 -25.3416 768.22 -93.5851C815.177 -176.94 876.815 -256.919 978.939 -270.931C1158.97 -295.605 1280.58 -156.203 1413.22 -63.4137C1477.62 -18.3613 1568.36 31.9072 1648.05 39.0154C1764.24 49.3708 1852.15 -62.7745 1919 -140.913" stroke="#666666" stroke-miterlimit="10"/>
<path d="M0.84375 -238.126C60.5376 -278.908 124.349 -314.168 198.903 -295.247C262.458 -279.139 312.945 -231.095 356.219 -184.585C422 -113.887 487.96 17.4353 597.859 12.5517C681.006 8.86974 723.385 -54.2343 766.813 -116.341C820.139 -192.639 884.513 -264.181 982.161 -278.039C1159.48 -303.224 1283.7 -182.718 1421.66 -96.7555C1485.39 -57.0214 1566.26 -9.89782 1639.69 9.09988C1758.72 39.8849 1849.36 -71.6212 1919.03 -150.373" stroke="#666666" stroke-miterlimit="10"/>
<path d="M0.84375 -242.524C58.9008 -282.692 121.357 -318.719 194.683 -303.812C255.732 -291.386 305.349 -248.635 347.882 -205.704C414.583 -138.407 476.681 -17.5426 583.153 -22.2729C663.922 -25.8525 712.49 -78.9847 761.902 -136.234C821.11 -204.809 889.449 -269.959 983.338 -283.613C1153.16 -308.312 1283.29 -211.969 1422.86 -135.313C1492.12 -97.2665 1564.96 -50.7566 1637.67 -19.9717C1754.73 29.6065 1846.75 -77.6807 1919 -155.947" stroke="#666666" stroke-miterlimit="10"/>
</g>
</svg>
